<svg width="16" height="16" xmlns="http://www.w3.org/2000/svg"><path d="M4.4 1.3C5.4.5 6.7 0 8 0c2.7 0 5 2 5.2 4.6C14.8 4.8 16 6 16 7.8c0 1.8-1.5 3.2-3.3 3.2H10a.5.5 0 1 1 0-1h2.7C14 10 15 9 15 7.8c0-1.2-1-2.3-2.3-2.3h-.5V5c0-2.2-1.9-4-4.2-4-1 0-2.1.4-3 1.1-.7.7-1 1.4-1 2v.5h-.5A2.7 2.7 0 0 0 1 7.4C1 8.8 2.2 10 3.8 10H6a.5.5 0 1 1 0 1H3.8C1.8 11 0 9.4 0 7.3c0-1.7 1.3-3.2 3-3.6C3 3 3.5 2 4.3 1.3"/><path d="M7.6 15.9a.5.5 0 0 0 .8 0l3-3a.5.5 0 0 0-.8-.8l-2.1 2.2V5.5a.5.5 0 0 0-1 0v8.8L5.4 12a.5.5 0 0 0-.8.8l3 3Z"/></svg>