<svg xmlns="http://www.w3.org/2000/svg" width="16" height="16" viewBox="0 0 16 16"><path fill="#0056CC" d="M9,0.25 C9.19891237,0.25 9.3896778,0.32901763 9.53033009,0.469669914 L10.5303301,1.46966991 C10.8232233,1.76256313 10.8232233,2.23743687 10.5303301,2.53033009 C10.2374369,2.8232233 9.76256313,2.8232233 9.46966991,2.53033009 L8.689,1.75 L1.75,1.75 L1.75,14.25 L11.25,14.25 L11.25,13.5 C11.25,13.1203042 11.5321539,12.806509 11.8982294,12.7568466 L12,12.75 C12.4142136,12.75 12.75,13.0857864 12.75,13.5 L12.75,15 C12.75,15.4142136 12.4142136,15.75 12,15.75 L1,15.75 C0.585786438,15.75 0.25,15.4142136 0.25,15 L0.25,1 C0.25,0.585786438 0.585786438,0.25 1,0.25 L9,0.25 Z M13.3060555,9.0464519 L13.3060555,10.9054967 C13.3088531,11.0993334 13.2074225,11.2804619 13.038724,11.3825521 C12.1020616,11.8551364 11.2397018,11.9881237 10,12 C8.76029819,11.9881237 7.89796724,11.8551445 6.96132558,11.3825521 C6.81671059,11.2950564 6.72151613,11.1494814 6.69910004,10.9876018 L6.694065,10.9054967 L6.694065,9.0462985 L9.33858603,10.1763258 C9.54705179,10.2657384 9.77232668,10.3116609 10,10.3111556 C10.1821382,10.3115619 10.3627417,10.2822545 10.5344324,10.2247375 L10.661414,10.1763339 L13.3060555,9.0464519 Z M10.2228555,4.02999351 L10.3302566,4.06748541 L15.7548032,6.38585589 C15.9037546,6.44951972 16,6.59328232 16,6.75210858 C16,6.88824537 15.9292891,7.01331498 15.8152857,7.08636237 L15.7548032,7.11836126 L10.3302566,9.43678019 C10.1548231,9.51176397 9.95931806,9.52426127 9.77719407,9.47427208 L9.66979303,9.43678019 L5.86766064,7.81179829 L5.86766064,9.94059158 C5.99813511,10.0533684 6.07327565,10.2150855 6.07427761,10.3852716 C6.07320837,10.4473 6.06217575,10.5085825 6.0417566,10.5669252 L6.00416007,10.6519602 L6.33345793,11.2953325 C6.41071803,11.4462709 6.40246348,11.6255273 6.31164244,11.7690794 C6.23595824,11.8887062 6.1119307,11.9693165 5.9727197,11.9928637 L5.88763637,12 L5.02121704,12 C4.84847125,12 4.6880427,11.9126207 4.59722366,11.7690718 C4.52154112,11.6494476 4.50319178,11.5050303 4.54388255,11.3728651 L4.57539548,11.2953325 L4.90469334,10.6519602 C4.78806418,10.4395105 4.81998282,10.1820257 4.97664401,10.0035669 L5.04119277,9.94059158 L5.04119277,7.45857646 L4.24519677,7.11836126 C4.09624537,7.05469743 4,6.91093483 4,6.75210858 C4,6.61597178 4.07071088,6.49090217 4.18471429,6.41785479 L4.24519677,6.38585589 L9.66979303,4.06748541 C9.84522649,3.99250162 10.0407315,3.98000432 10.2228555,4.02999351 Z"/></svg>