<svg xmlns="http://www.w3.org/2000/svg" width="16" height="16"><path fill="#0D6EFD" d="M.88129257 2.5c0-.82842712.68290325-1.5 1.5253071-1.5h2.81063255c.9741628 0 1.78969366.56 2.3499898 1.184.41691728.464.92026862.816 1.44904175.816h4.57592133c.8424038 0 1.5253071.67157288 1.5253071 1.5v.64c.5796167.265.9558591.876.8704419 1.546l-.6507977 5.124c-.1590919 1.2519786-1.2418891 2.1911579-2.5248917 2.19H3.18552316c-1.28222776.0001485-2.3638617-.938778-2.52285794-2.19l-.6507977-5.124c-.08225696-.64630996.26902845-1.27096098.86942505-1.546V2.5ZM1.89816397 5H14.1006208v-.5c0-.27614237-.2276345-.5-.5084357-.5H9.01626377c-.98026403 0-1.73885009-.629-2.21067842-1.154C6.34595947 2.334 5.78261272 2 5.21723222 2H2.40659967c-.28080128 0-.5084357.22385763-.5084357.5V5Zm-.3731918 1c-.14580696 0-.28457935.0616386-.38106126.16914504s-.14138703.25057378-.12330696.39285496l.6507977 5.124c.09541691.7508845.74462988 1.3142909 1.51412151 1.314h9.62773844c.7694916.0002909 1.4187046-.5631155 1.5141215-1.314l.6507977-5.124c.0180801-.14228118-.0268251-.28534852-.123307-.39285496C14.7583919 6.0616386 14.6196195 6 14.4738126 6H1.52497217Z"/></svg>