<svg xmlns="http://www.w3.org/2000/svg" width="16" height="16" viewBox="0 0 16 16"><path fill="#0056CC" d="M9.59099026,12.4194174 C9.88388348,12.7123106 9.88388348,13.1871843 9.59099026,13.4800776 L8.70710678,14.363961 C6.75448532,16.3165825 3.58866043,16.3165825 1.63603897,14.363961 C-0.316582489,12.4113396 -0.316582489,9.24551468 1.63603897,7.29289322 L2.51992245,6.40900974 C2.81281566,6.11611652 3.2876894,6.11611652 3.58058262,6.40900974 C3.87347584,6.70190296 3.87347584,7.1767767 3.58058262,7.46966991 L2.69669914,8.35355339 C1.32986412,9.72038841 1.32986412,11.9364658 2.69669914,13.3033009 C4.06353416,14.6701359 6.27961159,14.6701359 7.64644661,13.3033009 L8.53033009,12.4194174 C8.8232233,12.1265242 9.29809704,12.1265242 9.59099026,12.4194174 Z M11.0052038,4.99479618 C11.298097,5.2876894 11.298097,5.76256313 11.0052038,6.05545635 L5.34834957,11.7123106 C5.05545635,12.0052038 4.58058262,12.0052038 4.2876894,11.7123106 C3.99479618,11.4194174 3.99479618,10.9445436 4.2876894,10.6516504 L9.94454365,4.99479618 C10.2374369,4.70190296 10.7123106,4.70190296 11.0052038,4.99479618 Z M14.363961,1.63603897 C16.3165825,3.58866043 16.3165825,6.75448532 14.363961,8.70710678 L13.4800776,9.59099026 C13.1871843,9.88388348 12.7123106,9.88388348 12.4194174,9.59099026 C12.1265242,9.29809704 12.1265242,8.8232233 12.4194174,8.53033009 L13.3033009,7.64644661 C14.6701359,6.27961159 14.6701359,4.06353416 13.3033009,2.69669914 C11.9364658,1.32986412 9.72038841,1.32986412 8.35355339,2.69669914 L7.46966991,3.58058262 C7.1767767,3.87347584 6.70190296,3.87347584 6.40900974,3.58058262 C6.11611652,3.2876894 6.11611652,2.81281566 6.40900974,2.51992245 L7.29289322,1.63603897 C9.24551468,-0.316582489 12.4113396,-0.316582489 14.363961,1.63603897 Z"/></svg>