<svg xmlns="http://www.w3.org/2000/svg" width="16" height="16"><g fill="#0D6EFD" fill-rule="nonzero"><path d="M15.502 2.44039323c.1945254.19513487.1945254.51086512 0 .706l-1.043 1.044-2-2 1.043-1.044c.1952499-.19519097.5117501-.19519097.707 0l1.293 1.293v.001Zm-1.75 2.456-2-2-6.813 6.814c-.0550377.05502592-.09647038.12214001-.121.196l-.805 2.41399997c-.02977452.0897537-.00635888.1886259.0605076.2554924s.16573868.0902822.2554924.0605076l2.414-.805c.0737645-.024239.14087028-.0653242.196-.12l6.813-6.81399997v-.001Z"/><path d="M1 14.0003932c0 .8284272.67157288 1.5 1.5 1.5h11c.8284271 0 1.5-.6715728 1.5-1.5V8.00039323c0-.27614238-.2238576-.5-.5-.5s-.5.22385762-.5.5v5.99999997c0 .2761424-.2238576.5-.5.5h-11c-.27614237 0-.5-.2238576-.5-.5V3.00039323c0-.27614238.22385763-.5.5-.5H9c.27614237 0 .5-.22385763.5-.5 0-.27614238-.22385763-.5-.5-.5H2.5c-.82842712 0-1.5.67157287-1.5 1.5V14.0003932Z"/></g></svg>