<svg xmlns="http://www.w3.org/2000/svg" width="16" height="16" viewBox="0 0 16 16"><path fill="#677487" d="M7,0 C10.8659932,0 14,3.13400675 14,7 C14,8.27558153 13.6588117,9.47147425 13.0627165,10.5013966 L15.2803301,12.7196699 C15.9874369,13.4267767 15.9874369,14.5732233 15.2803301,15.2803301 C14.5732233,15.9874369 13.4267767,15.9874369 12.7196699,15.2803301 L10.5013966,13.0627165 C9.47147425,13.6588117 8.27558153,14 7,14 C3.13400675,14 0,10.8659932 0,7 C0,3.13400675 3.13400675,0 7,0 Z M14.2196699,13.7803301 L12.1653232,11.7259833 L12.1055527,11.7889084 C11.983576,11.9188986 11.8566916,12.0442288 11.7251953,12.1646034 L13.7803301,14.2196699 C13.9016504,14.3409903 14.0983496,14.3409903 14.2196699,14.2196699 C14.3409903,14.0983496 14.3409903,13.9016504 14.2196699,13.7803301 Z M7,1.5 C3.96243388,1.5 1.5,3.96243388 1.5,7 C1.5,10.0375661 3.96243388,12.5 7,12.5 C10.0375661,12.5 12.5,10.0375661 12.5,7 C12.5,3.96243388 10.0375661,1.5 7,1.5 Z M10.0303301,4.96966991 C10.3232233,5.26256313 10.3232233,5.73743687 10.0303301,6.03033009 L7.03033009,9.03033009 C6.73743687,9.3232233 6.26256313,9.3232233 5.96966991,9.03033009 L3.96966991,7.03033009 C3.6767767,6.73743687 3.6767767,6.26256313 3.96966991,5.96966991 C4.26256313,5.6767767 4.73743687,5.6767767 5.03033009,5.96966991 L6.5,7.439 L8.96966991,4.96966991 C9.26256313,4.6767767 9.73743687,4.6767767 10.0303301,4.96966991 Z"/></svg>