<svg width="16" height="16" xmlns="http://www.w3.org/2000/svg"><path d="M4.00063158 2.5c0-.27614237-.22385762-.5-.5-.5-.27614237 0-.5.22385763-.5.5v8.793l-1.146-1.147c-.1955088-.19550879-.51249118-.19550878-.70799998 0-.1955088.1955088-.1955088.5124912-2e-8 .708l2 1.999.007.007c.19540176.1905381.50789308.1878596.7-.006l2-2c.12647202-.1262934.17596027-.3104653.129823-.48314-.04613727-.1726747-.18089071-.3076187-.3535-.354-.17260929-.04638127-.35685098.0028466-.483323.12914l-1.146 1.147V2.5Zm3.5 1c0-.27614237.22385763-.5.5-.5h7.00000002c.2761424 0 .5.22385763.5.5 0 .27614237-.2238576.5-.5.5H8.00063158c-.27614237 0-.5-.22385763-.5-.5m.5 2.5c-.27614237 0-.5.22385763-.5.5 0 .27614237.22385763.5.5.5h5.00000002c.2761424 0 .5-.22385763.5-.5 0-.27614237-.2238576-.5-.5-.5H8.00063158Zm0 3c-.27614237 0-.5.22385763-.5.5 0 .27614237.22385763.5.5.5h3.00000002c.2761424 0 .5-.22385763.5-.5 0-.27614237-.2238576-.5-.5-.5H8.00063158Zm0 3c-.27614237 0-.5.2238576-.5.5s.22385763.5.5.5h1c.27614238 0 .5-.2238576.5-.5s-.22385762-.5-.5-.5h-1Z" fill="#7038C9" fill-rule="nonzero"/></svg>