<svg xmlns="http://www.w3.org/2000/svg" width="16" height="16"><g fill="#0D6EFD" fill-rule="nonzero"><path d="M5.5 6c.27614237 0 .5.22385763.5.5v6c0 .2761424-.22385763.5-.5.5-.27614237 0-.5-.2238576-.5-.5v-6c0-.27614237.22385763-.5.5-.5M8 6c.27614237 0 .5.22385763.5.5v6c0 .2761424-.22385763.5-.5.5-.27614237 0-.5-.2238576-.5-.5v-6c0-.27614237.22385763-.5.5-.5m3 .5c0-.27614237-.2238576-.5-.5-.5s-.5.22385763-.5.5v6c0 .2761424.2238576.5.5.5s.5-.2238576.5-.5v-6Z"/><path d="M14.5 3.5c0 .55228475-.4477153 1-1 1H13v9c0 1.1045695-.8954305 2-2 2H5c-1.1045695 0-2-.8954305-2-2v-9h-.5c-.55228475 0-1-.44771525-1-1v-1c0-.55228475.44771525-1 1-1H6c0-.55228475.44771525-1 1-1h2c.55228475 0 1 .44771525 1 1h3.5c.5522847 0 1 .44771525 1 1v1Zm-10.382 1L4 4.559V13.5c0 .5522847.44771525 1 1 1h6c.5522847 0 1-.4477153 1-1V4.559l-.118-.059H4.118ZM2.5 3.5h11v-1h-11v1Z"/></g></svg>